ply
format ascii 1.0
element vertex 1200
property float x
property float y
property float z
property uchar red
property uchar green
property uchar blue
end_header
  0.0019277 -0.00109935 -0.00115377 255 0 0
 0.0106955 -0.0840955    0.99413 0 255 0
 -2.08988 0.0176823  0.373654 0 0 255
 -3.69313 -0.125696   2.04154 255 255 0
  -4.02192 0.00694469   0.816715 0 255 255
0.815046 -1.33157  5.97117 255 255 255
 1.44998 -1.12363  5.24006 255 255 255
 1.45466 -1.07678  5.26366 255 255 255
  -1.61132 -0.0243862    6.13742 255 255 255
 1.4394  -1.024 5.25695 255 255 255
-1.57994 0.020805  6.15308 255 255 255
-1.78336  0.20884  6.10516 255 255 255
-1.53689 0.220077  6.07938 255 255 255
-1.90606 0.294018  6.62488 255 255 255
   -1.4402 -0.0455475    6.12512 255 255 255
 -1.5276 0.220504  6.07807 255 255 255
-0.956608  0.331096   6.33055 255 255 255
-1.60831 0.320047  6.18355 255 255 255
-1.69422 0.368991  6.18813 255 255 255
-1.59662 0.305981  6.13156 255 255 255
-1.68286 0.415603  5.26721 255 255 255
-1.44153 0.325544   6.2839 255 255 255
-1.64943 0.440247   5.2699 255 255 255
-0.927077   0.82863   5.63847 255 255 255
0.311445 0.659423  6.22981 255 255 255
-1.76531 0.553966  5.35019 255 255 255
-1.33985 0.830142  5.52741 255 255 255
-0.814261  0.842829   5.55857 255 255 255
-0.976889  0.830029   5.65594 255 255 255
-0.858747  0.845024   5.51731 255 255 255
-0.907701   0.85082   5.50841 255 255 255
-0.815228  0.856162     5.476 255 255 255
-1.39493 0.838023  5.56512 255 255 255
-0.789427   0.89796   5.56718 255 255 255
-0.749497  0.926911   5.68043 255 255 255
-1.91801  1.17847  6.82829 255 255 255
-0.798378  0.912613   5.50731 255 255 255
-2.00209  1.13229  6.58055 255 255 255
-1.92743  1.19612  6.84093 255 255 255
-1.99117  1.15405  6.59761 255 255 255
-0.464297  0.986119   5.75031 255 255 255
-0.789335   0.96361   5.58958 255 255 255
-0.20936 0.989286  5.68607 255 255 255
-1.99678  1.18595  6.62945 255 255 255
-0.0828629    0.99128    5.68194 255 255 255
-0.386588  0.993864   5.68762 255 255 255
-0.795919  0.960185   5.52541 255 255 255
 1.05662 0.734868  4.52723 255 255 255
-0.270374  0.994682   5.62318 255 255 255
1.01412 0.74638 4.50047 255 255 255
-0.0891699    1.00824     5.6717 255 255 255
-0.38309  1.00258  5.58119 255 255 255
0.997968 0.733944  4.46187 255 255 255
 1.02737 0.750938  4.50105 255 255 255
-0.591128   1.00841   5.57726 255 255 255
0.965598 0.739242  4.42922 255 255 255
-0.503618   1.00787   5.54168 255 255 255
-0.165128   1.01441   5.49521 255 255 255
 1.02136 0.784957  4.49659 255 255 255
0.693213 0.792123  4.51433 255 255 255
-0.799387   1.04309   5.51612 255 255 255
-0.638745   1.04633   5.51185 255 255 255
-0.18015  1.05472  5.43249 255 255 255
-0.924015   1.04055   5.51404 255 255 255
 1.02881 0.823232  4.50889 255 255 255
-0.604705   1.08067   5.50104 255 255 255
-0.223275   1.66125   7.70096 255 255 255
-0.732094    1.1118   5.53945 255 255 255
-0.366517   1.08428   5.40071 255 255 255
-0.351204   1.08909   5.38916 255 255 255
 1.04552 0.877045  4.52832 255 255 255
0.892997 0.835344  4.35943 255 255 255
1.48118 1.14736 5.46783 255 255 255
0.949125 0.859829  4.42142 255 255 255
0.936914   0.8612  4.40805 255 255 255
-0.0877246    1.23696    5.68632 255 255 255
-0.0803436    1.24077    5.69366 255 255 255
-0.799178   1.19234   5.50349 255 255 255
-0.785554   1.23431   5.62216 255 255 255
-0.790575    1.2163   5.52369 255 255 255
0.894328 0.900657  4.36421 255 255 255
-0.665799   1.24482   5.54152 255 255 255
 1.03365 0.948726  4.51755 255 255 255
-0.155966   1.24171   5.50616 255 255 255
0.892602 0.908545  4.36261 255 255 255
-0.853517   1.26343   5.51998 255 255 255
-0.623578   1.29842    5.5318 255 255 255
-0.670788   1.31355   5.54954 255 255 255
-0.595086   1.31712   5.53042 255 255 255
-0.798149   1.32747   5.55946 255 255 255
-0.786602   1.26147   5.58859 255 255 255
-0.505056   1.32075   5.49795 255 255 255
0.919965 0.979549  4.39856 255 255 255
0.951047 0.926364  4.42888 255 255 255
-0.407875   1.30857   5.44062 255 255 255
0.932001 0.926029  4.41111 255 255 255
0.910031 0.983507   4.3841 255 255 255
-0.814959   1.34315   5.52741 255 255 255
-0.542677   1.33805   5.51066 255 255 255
-0.806394   1.34604   5.52602 255 255 255
-0.871817   1.27512   5.52572 255 255 255
-0.261351   1.33576    5.3886 255 255 255
1.02245 1.10445 4.57521 255 255 255
1.00971 1.11398 4.56086 255 255 255
1.06297 1.12278 4.56227 255 255 255
 1.46953 -1.13004  5.23952 255 255 255
  1.4579 -1.11913  5.25027 255 255 255
-2.35582 -1.18631  6.67236 255 255 255
  -1.44118 -0.0359328    6.12895 255 255 255
  -1.52053 -0.0222387     6.1485 255 255 255
-0.432284  -0.35089     6.384 255 255 255
-1.27934  0.21788  6.06677 255 255 255
 -1.5489 0.220034  6.08717 255 255 255
-1.54036 0.228831  6.07882 255 255 255
-1.28259 0.235167  6.07435 255 255 255
-1.85567 0.273317  6.60557 255 255 255
-1.89267 0.286628  6.62309 255 255 255
-1.88642 0.299097  6.58916 255 255 255
-1.36225 0.325535  6.36621 255 255 255
-1.89279 0.337398  6.43107 255 255 255
-1.89874 0.363428  6.21888 255 255 255
-1.68097 0.366759   6.2247 255 255 255
-1.63657 0.381651   6.1537 255 255 255
-1.70147 0.424546  5.27627 255 255 255
-1.65715 0.442699  5.28828 255 255 255
-0.788443   0.78018   6.21784 255 255 255
-0.150305  0.923046   6.18727 255 255 255
-0.112902  0.926629   6.18044 255 255 255
  0.5434 0.677102  4.88928 255 255 255
 0.52319 0.680592  4.84394 255 255 255
-0.906143  0.842553     5.579 255 255 255
-1.01602 0.840176  5.56622 255 255 255
-0.862222  0.842883   5.54724 255 255 255
-0.878477  0.844168   5.55084 255 255 255
-0.819212  0.852751   5.50314 255 255 255
-0.913166  0.882084   5.49387 255 255 255
-0.88572 0.883394  5.48819 255 255 255
-0.770263  0.938634    5.6623 255 255 255
-0.573046  0.984661   5.76495 255 255 255
-0.244065  0.984711    5.7248 255 255 255
-0.318382  0.985369   5.69833 255 255 255
-0.427128  0.989095   5.70321 255 255 255
-0.270151  0.987714   5.68868 255 255 255
1.06044 0.72864 4.53116 255 255 255
 0.95405 0.712849  4.44575 255 255 255
-0.534993  0.996292   5.67095 255 255 255
-0.279863  0.992853   5.63173 255 255 255
-0.418992   1.00035    5.6312 255 255 255
 1.02018 0.742237  4.49164 255 255 255
-0.205395   1.00066   5.57896 255 255 255
-0.989613   0.98904   5.50597 255 255 255
-0.379799    1.0042   5.54987 255 255 255
-0.604511   1.00742   5.55431 255 255 255
 1.01201 0.754689  4.49141 255 255 255
-0.120102   1.01685   5.58441 255 255 255
0.920914 0.728905  4.37791 255 255 255
-0.496028    1.0116   5.56126 255 255 255
-0.219412   1.00674   5.52425 255 255 255
0.932433 0.736888  4.39342 255 255 255
-0.129604   1.02218   5.56737 255 255 255
0.942096 0.742292   4.4041 255 255 255
-0.176806    1.0089   5.50866 255 255 255
-0.355783   1.01016   5.49967 255 255 255
 1.01507 0.770717  4.49485 255 255 255
-0.089033    1.0757   5.67768 255 255 255
-0.347036   1.02003   5.44668 255 255 255
-0.172884   1.02324   5.45293 255 255 255
-0.802795   1.03301   5.49033 255 255 255
-0.802063    1.0526   5.49949 255 255 255
-0.797883   1.06372   5.51552 255 255 255
-0.1882 1.05355 5.42105 255 255 255
-0.800488   1.08924   5.53307 255 255 255
-0.33798  1.06897  5.38318 255 255 255
 0.92529 0.819556   4.3832 255 255 255
-0.126295   1.18238   5.59117 255 255 255
-0.0951833    1.21699    5.67866 255 255 255
 0.3421   1.124 5.29394 255 255 255
0.353274  1.12416  5.28945 255 255 255
-0.158813   1.19215   5.51889 255 255 255
0.690384 0.919165  4.53162 255 255 255
0.900635 0.888106  4.36636 255 255 255
 1.00004 0.926719  4.48161 255 255 255
-0.482072   1.21767   5.48183 255 255 255
 1.02726 0.938116  4.51327 255 255 255
-0.165927   1.22369   5.49428 255 255 255
-0.347144    1.2074   5.40696 255 255 255
0.986907  0.93365  4.46845 255 255 255
 1.04934 0.955414  4.53686 255 255 255
-0.355369   1.21254   5.41073 255 255 255
-0.543993   1.24554   5.49765 255 255 255
0.956286  0.93344  4.43625 255 255 255
-0.531641   1.24658   5.49746 255 255 255
-0.878114   1.26179    5.5246 255 255 255
-0.507966   1.25404   5.49025 255 255 255
 1.06048 0.981042  4.55173 255 255 255
-0.878718   1.28026   5.52649 255 255 255
-0.630197   1.28658   5.52993 255 255 255
-0.508133   1.27854   5.49368 255 255 255
-0.499088    1.2871   5.49192 255 255 255
-0.651794   1.30916   5.54257 255 255 255
-0.25564   1.2586  5.37809 255 255 255
-0.163174   1.29621   5.50093 255 255 255
-0.525731   1.30773   5.50218 255 255 255
-0.323921   1.28062   5.40383 255 255 255
-0.219911     1.289   5.42763 255 255 255
-0.62848  1.33601  5.53782 255 255 255
-0.326899   1.29689   5.40837 255 255 255
-0.272842   1.31143   5.39048 255 255 255
-1.3863 1.35272 5.49824 255 255 255
-0.266426   1.32032   5.38831 255 255 255
-0.252775   1.32513   5.38767 255 255 255
-0.290081   1.34208   5.39946 255 255 255
0.960989  1.06981  4.50136 255 255 255
1.00722 1.09915 4.55743 255 255 255
 1.37142 -1.07941  5.29039 255 255 255
 1.44639 -1.06455  5.25156 255 255 255
  1.45131 -0.994275   5.24204 255 255 255
   1.553 0.428986  5.36269 255 255 255
-1.47821  0.47245  5.68781 255 255 255
-1.81553 0.434068  5.31078 255 255 255
-1.64297 0.431588  5.27457 255 255 255
 0.163301 -0.548846   6.31657 255 255 255
-1.6691 0.44722 5.30424 255 255 255
 -1.62443 -0.032696   6.14279 255 255 255
   -1.5142 -0.0215622    6.11765 255 255 255
-1.34493 0.231421  6.06104 255 255 255
-1.33189 0.233133  6.08011 255 255 255
 -1.8743 0.285155  6.61725 255 255 255
-1.91524 0.291195  6.62298 255 255 255
-1.86423 0.298455  6.59195 255 255 255
 1.56689 0.517646  5.40062 255 255 255
-0.953251  0.318243   6.27644 255 255 255
 1.6704 0.52648 5.44891 255 255 255
0.853641 0.359889  6.16625 255 255 255
0.0487411  0.724507   6.04838 255 255 255
-1.62037 0.425237  5.27197 255 255 255
-1.74834 0.524487  5.34247 255 255 255
-0.147984  0.654748   6.13516 255 255 255
-1.76932 0.547901   5.3324 255 255 255
-0.787116  0.789858   6.06897 255 255 255
-0.718739    0.7901   6.06169 255 255 255
0.0508949  0.811518   6.06351 255 255 255
-1.38145 0.799801  5.77728 255 255 255
-0.143132  0.910313   6.20101 255 255 255
-0.140993  0.934195   6.18417 255 255 255
0.0406843  0.931887   6.07803 255 255 255
-0.83785 0.838273  5.60355 255 255 255
0.0461397  0.812394   6.08645 255 255 255
-0.919417  0.843694   5.56118 255 255 255
-0.969308  0.847555   5.52507 255 255 255
-0.770241   0.88938   5.64891 255 255 255
-0.954213  0.883353   5.50197 255 255 255
-0.751213  0.860661   5.77038 255 255 255
-0.930925  0.882022   5.49711 255 255 255
-0.799399   0.92599   5.51809 255 255 255
-1.00467 0.850513  5.54947 255 255 255
-1.92868  1.22994  6.85995 255 255 255
-0.762313  0.904626   5.68376 255 255 255
-0.568612  0.989094   5.73723 255 255 255
-0.799192  0.872845   5.49467 255 255 255
-0.798572  0.948042   5.51407 255 255 255
-0.444919  0.988451   5.68307 255 255 255
-0.98899 0.906603  5.51696 255 255 255
-0.766562  0.985571    5.6578 255 255 255
-0.0946206   0.991556    5.66479 255 255 255
-0.48789 0.979522  5.84431 255 255 255
-0.174708  0.990347   5.64995 255 255 255
-0.084116   0.99889   5.66925 255 255 255
  1.0343 0.705718  4.50883 255 255 255
0.546649  0.78071   4.6546 255 255 255
-0.640777   1.00696   5.58287 255 255 255
-0.339476   1.00557   5.54816 255 255 255
 1.01881 0.762624   4.4953 255 255 255
-0.787133   1.02606   5.59001 255 255 255
-0.773217   1.02881   5.58096 255 255 255
-0.319927   1.01032    5.4814 255 255 255
-0.254375   1.01181   5.47436 255 255 255
-0.157728   1.01956   5.51034 255 255 255
-0.270041    1.0132   5.46699 255 255 255
-0.784782   1.05363   5.56113 255 255 255
0.916549 0.772962  4.38156 255 255 255
-0.196059    1.0636     5.392 255 255 255
0.905827 0.710408  4.45822 255 255 255
-0.244037  0.990332    5.6468 255 255 255
-0.772558  0.987517   5.61966 255 255 255
-0.668084  0.998924   5.68101 255 255 255
 1.01034 0.728739  4.47547 255 255 255
 0.57386 0.920452  4.64183 255 255 255
 1.05866 0.749006  4.53347 255 255 255
0.978841 0.733044  4.44526 255 255 255
0.206729  1.12001   5.3439 255 255 255
-0.580969   1.00728   5.55162 255 255 255
0.903863 0.725602   4.3728 255 255 255
-0.795561     1.001   5.51397 255 255 255
-0.257491   1.00826   5.51105 255 255 255
0.330655  1.12443  5.29724 255 255 255
-0.0982658    1.03868    5.62969 255 255 255
-0.778602   1.22392   5.61898 255 255 255
-0.601677   1.19903   5.51276 255 255 255
-0.132336   1.22823   5.58501 255 255 255
-0.173428    1.0139   5.48039 255 255 255
0.904373 0.879587  4.35594 255 255 255
-0.0922778    1.07493    5.67013 255 255 255
 1.02858 0.927923  4.51388 255 255 255
 1.06348 0.940124  4.55081 255 255 255
-0.0869273    1.08884    5.66851 255 255 255
-0.113391   1.25002   5.60252 255 255 255
 1.01314 0.930251  4.49696 255 255 255
0.23198 1.00834 5.32878 255 255 255
-0.48789  1.22741    5.512 255 255 255
-0.581669   1.23241   5.50781 255 255 255
-0.206708   1.02912   5.38547 255 255 255
-0.458615   1.22389   5.46769 255 255 255
-0.509943   1.23215   5.48778 255 255 255
-0.163835   1.09583    5.4946 255 255 255
-0.168026   1.23436   5.48332 255 255 255
-0.149081   1.10157   5.50535 255 255 255
-0.79116   1.2696  5.58324 255 255 255
0.580046 0.900825  4.64173 255 255 255
0.881685 0.917028  4.35711 255 255 255
-0.626094   1.26619   5.53048 255 255 255
0.570436 0.911809  4.64927 255 255 255
-0.36849  1.23785  5.41769 255 255 255
-0.327487    1.2353   5.40128 255 255 255
-0.471416   1.26277   5.48879 255 255 255
-0.0853933    1.22917    5.69409 255 255 255
-0.848906   1.27601   5.52029 255 255 255
-0.256984   1.23549   5.37116 255 255 255
1.53817 1.16462  5.4505 255 255 255
0.907144 0.864148  4.36431 255 255 255
-0.632908   1.29535   5.52796 255 255 255
0.929665 0.874503   4.4029 255 255 255
-0.102364   1.24006   5.66224 255 255 255
-0.360105   1.26706   5.41493 255 255 255
 1.04925 0.921825  4.53357 255 255 255
-0.150469   1.22725   5.51699 255 255 255
-0.0696741    1.29977    5.72465 255 255 255
-0.524797   1.23433   5.49502 255 255 255
-0.256199   1.30084   5.38384 255 255 255
-0.0831927    1.30437    5.72149 255 255 255
-0.373546   1.33949   5.43233 255 255 255
-0.346353   1.23828   5.40995 255 255 255
-0.158233   1.27263   5.51915 255 255 255
-0.391849   1.24688   5.42829 255 255 255
-0.130032   1.31785   5.59632 255 255 255
 1.49791 -1.02998  5.22526 255 255 255
-0.335463   1.26878   5.40765 255 255 255
 1.44842 -1.01047  5.23318 255 255 255
-0.50914  1.29738  5.49617 255 255 255
-0.145199   1.32055   5.55448 255 255 255
-1.01793  1.33365  5.56229 255 255 255
-0.676841   1.33163   5.55414 255 255 255
-2.01309  1.34691  5.59023 255 255 255
 0.244541 -0.546479   6.29113 255 255 255
 0.169745 -0.546859   6.31712 255 255 255
-1.00026  1.34173   5.5586 255 255 255
-0.582069   1.33694   5.52211 255 255 255
1.00289 1.07779 4.55169 255 255 255
 1.47493 -1.12787  5.24242 255 255 255
-2.06914 0.279962  6.80841 255 255 255
 1.37568 -1.11702  5.26174 255 255 255
 1.43873 -1.04744  5.24592 255 255 255
-0.912237  0.441578   6.49851 255 255 255
 0.177261 -0.464466   6.31968 255 255 255
  -1.7642 -0.179209   6.18011 255 255 255
  -1.5826 0.0205111   6.12733 255 255 255
 -1.53423 0.0215549   6.08438 255 255 255
 -1.53157 0.0620144   6.11643 255 255 255
-1.72951 0.205917  5.96769 255 255 255
-1.35919 0.333355   6.3671 255 255 255
-1.75904 0.376903  6.07822 255 255 255
-1.70278 0.415056  5.27437 255 255 255
-1.67625 0.449714  5.31585 255 255 255
  1.6443 0.517213  5.39205 255 255 255
-1.73542 0.520094  5.32491 255 255 255
-1.64161  0.53744  5.32821 255 255 255
-0.138333  0.950232   6.23468 255 255 255
-1.34099 0.818887  5.54184 255 255 255
-1.00435 0.852199  5.56645 255 255 255
-0.983958  0.907766   5.51353 255 255 255
-0.459461  0.979748   5.83469 255 255 255
-0.624112  0.986796   5.83126 255 255 255
-0.32693 0.986595  5.78459 255 255 255
-1.94355  1.22267  6.84214 255 255 255
-0.12393 0.987782   5.6896 255 255 255
 1.01474 0.715561   4.4899 255 255 255
-0.970103  0.952589   5.52936 255 255 255
-0.258669  0.994757   5.65957 255 255 255
-0.125508  0.998562   5.62502 255 255 255
-0.559275    1.0044   5.60477 255 255 255
-0.39852 0.999243  5.53886 255 255 255
-0.770631   1.02329   5.58802 255 255 255
0.306954  1.01663  5.32075 255 255 255
-0.168596   1.11338   5.47124 255 255 255
0.582081 0.899272  4.63894 255 255 255
0.229281  1.09706   5.3386 255 255 255
-0.718652   1.17796   5.55427 255 255 255
0.905305 0.851756  4.36996 255 255 255
1.49208 1.19142 5.47218 255 255 255
-0.601534   1.21714   5.51231 255 255 255
 1.04718 0.939639  4.53208 255 255 255
-0.218383   1.19433   5.38465 255 255 255
-0.879184   1.24019   5.52331 255 255 255
-0.848802   1.23973    5.5179 255 255 255
-0.647913   1.24403    5.5323 255 255 255
-0.331484   1.20714   5.39974 255 255 255
-0.347266   1.22133   5.40582 255 255 255
-0.142277   1.26513   5.53585 255 255 255
-0.169563   1.25183   5.47178 255 255 255
-0.856516   1.25878   5.48386 255 255 255
-0.878205   1.30243     5.527 255 255 255
-0.848003   1.30243   5.52181 255 255 255
-0.683733   1.31417   5.55621 255 255 255
-0.65333  1.31611  5.54432 255 255 255
-0.939252   1.32426   5.54212 255 255 255
-0.427367   1.31619   5.45612 255 255 255
-0.421331   1.33394   5.45162 255 255 255
   -1.57236 -0.00513578     6.15929 255 255 255
-2.36682 -1.20185  6.64415 255 255 255
 0.148559 -0.551898   6.33078 255 255 255
-2.00481 0.300867  6.73482 255 255 255
  0.18858 -0.504391   6.31763 255 255 255
-1.44551 0.304762  6.26237 255 255 255
-0.968282  0.324418   6.23294 255 255 255
 0.179477 -0.465972   6.31348 255 255 255
 0.146491 -0.448247   6.33204 255 255 255
-1.85563 0.350619  6.39581 255 255 255
-1.58265 0.339652  6.27234 255 255 255
 1.58933 0.476887  5.40294 255 255 255
 1.62855 0.476339  5.38954 255 255 255
-1.5287 0.05897 6.08977 255 255 255
0.0375731  0.769484   6.08852 255 255 255
-1.0339 0.29238 6.44887 255 255 255
-0.821047  0.839783   5.58394 255 255 255
-0.985302  0.845418   5.55969 255 255 255
-1.42585 0.336828  6.27314 255 255 255
-1.91026 0.347929  6.37336 255 255 255
-0.768172  0.873144   5.66116 255 255 255
0.975715 0.709199  4.47847 255 255 255
-0.222017  0.991099   5.72893 255 255 255
-0.971484  0.948593   5.51355 255 255 255
-1.72074 0.484209  5.30571 255 255 255
-0.928072  0.952466   5.52264 255 255 255
-0.313507  0.993012   5.62795 255 255 255
0.858617 0.718458  4.44591 255 255 255
-0.70332 0.778591  6.15888 255 255 255
-0.759483   0.83506   5.71681 255 255 255
0.437989  0.71105  4.81652 255 255 255
-0.794299   1.01727   5.54852 255 255 255
0.567243 0.796427  4.63893 255 255 255
-0.426759   1.00995   5.50794 255 255 255
0.987986 0.701852   4.5313 255 255 255
-0.570372   1.06978   5.48981 255 255 255
-0.38294 0.988762  5.72752 255 255 255
-0.473033  0.994008    5.6937 255 255 255
-0.619164    1.0969   5.50366 255 255 255
0.293041  1.06008  5.33277 255 255 255
-0.970084  0.981884   5.50523 255 255 255
-0.318007    1.0797   5.37659 255 255 255
-0.0923003    1.17918    5.65827 255 255 255
0.878456 0.835935  4.34761 255 255 255
-0.133989    1.1936   5.56176 255 255 255
-0.138536   1.02792   5.50997 255 255 255
-0.118929    1.0551   5.60464 255 255 255
-0.841093   1.21355   5.51584 255 255 255
-0.710598   1.22733   5.55837 255 255 255
 1.03846 0.797612  4.51213 255 255 255
 1.00781 0.944101  4.48966 255 255 255
-0.217633   1.21076   5.36135 255 255 255
-0.718724   1.08768   5.51923 255 255 255
-0.492758   1.25957   5.48098 255 255 255
-0.586615    1.0982   5.49535 255 255 255
-0.190409   1.09876   5.42489 255 255 255
0.585121 0.897002  4.63479 255 255 255
-0.366356   1.10414    5.3944 255 255 255
-0.33241  1.10495  5.37988 255 255 255
-0.236997   1.23512   5.37018 255 255 255
-0.566823   1.28807   5.51231 255 255 255
-0.708584    1.1624   5.50514 255 255 255
1.54078 1.15628 5.45239 255 255 255
-0.210715   1.26369   5.39929 255 255 255
-0.857001   1.18725   5.51833 255 255 255
1.44791 1.18697 5.46795 255 255 255
-0.580743   1.19925   5.50557 255 255 255
-0.635747   1.22299   5.52924 255 255 255
-0.707727   1.31658   5.54798 255 255 255
-0.491949   1.22531   5.48343 255 255 255
-0.806284   1.32461   5.52754 255 255 255
-0.449753   1.22809    5.4566 255 255 255
-0.383068   1.22766   5.42509 255 255 255
0.452232  1.24821  5.28332 255 255 255
-0.425953   1.24373   5.44411 255 255 255
-0.312117   1.28957   5.40114 255 255 255
-0.193096   1.23518   5.41507 255 255 255
1.41055 1.28542 5.54202 255 255 255
-0.737147   1.32559   5.58293 255 255 255
-0.513875    1.3194   5.49839 255 255 255
-0.448622   1.33172    5.4691 255 255 255
 1.49793 -1.04283  5.22085 255 255 255
 1.43812 -1.03598   5.2573 255 255 255
 -1.56566 0.0497139    6.1248 255 255 255
-1.97978 0.237069  6.09981 255 255 255
-1.41863 0.269133  6.25683 255 255 255
-1.45116 0.346713  6.23513 255 255 255
-1.66078 0.402044  5.26974 255 255 255
-1.08223 0.481615  5.65811 255 255 255
-1.70063  0.45976  5.29674 255 255 255
0.0164918  0.735409   6.07738 255 255 255
0.011967 0.797835  6.09114 255 255 255
-0.820941  0.871764   5.49203 255 255 255
0.0975265  0.891786   5.43701 255 255 255
-0.35194 0.992605  5.76807 255 255 255
-0.810942  0.971086    5.4942 255 255 255
-0.504647   1.00586   5.62011 255 255 255
0.211011  0.99593  5.35369 255 255 255
-0.631572    1.0651   5.50986 255 255 255
-0.376866   1.07224   5.40016 255 255 255
-1.28207  1.28644  5.94179 255 255 255
1.46953 1.16474 5.47406 255 255 255
-0.810261   1.17386   5.49277 255 255 255
-0.178971   1.20284   5.43195 255 255 255
-0.840017   1.33304   5.53226 255 255 255
-1.36057  1.34185  5.48428 255 255 255
-1.60831 0.018732     6.13 255 255 255
 1.78844 0.200557  5.28504 255 255 255
-0.833181  0.418361    6.5065 255 255 255
  1.78044 0.0688241   5.28407 255 255 255
-1.0863 0.45559 5.68013 255 255 255
 -0.9409 0.341895  6.41515 255 255 255
-1.02597 0.463911  5.62416 255 255 255
-2.14493 0.317158  6.04434 255 255 255
-1.65745 0.479521  5.29857 255 255 255
-1.14049 0.484173  5.65713 255 255 255
 -1.0603 0.850627  5.63996 255 255 255
-0.332206   1.03837   5.41354 255 255 255
 1.60981 0.507062  5.39848 255 255 255
-0.660905  0.718904   6.54415 255 255 255
-0.148157   1.07463   5.55506 255 255 255
0.577929  0.85954  4.63105 255 255 255
-0.108495   1.12959   5.64068 255 255 255
0.218694  1.05778  5.34366 255 255 255
-1.00722 0.878116  5.52924 255 255 255
-0.947775   0.91889   5.50987 255 255 255
-0.741607  0.986618   5.73543 255 255 255
-0.413564  0.993879   5.61319 255 255 255
-0.948695  0.978503   5.50601 255 255 255
0.906027  0.75059  4.36693 255 255 255
 0.60922 0.824902  4.59001 255 255 255
0.271639  1.02716  5.33008 255 255 255
0.610361 0.886552  4.62188 255 255 255
0.913988 0.843872  4.37892 255 255 255
-1.96843 0.316938  6.22288 255 255 255
0.657604 0.936674  4.55765 255 255 255
-0.909393   1.22075   5.52879 255 255 255
-0.897037  0.404525   6.46643 255 255 255
-0.0957035    1.27742    5.68883 255 255 255
-0.605088   1.30597   5.52977 255 255 255
-0.905455   1.32657   5.53327 255 255 255
-0.349823   1.30908   5.42328 255 255 255
-0.704356   1.06604   5.59056 255 255 255
-0.198763   1.14924   5.39977 255 255 255
-0.684784   1.27832   5.54694 255 255 255
-0.974527   1.26628   5.51269 255 255 255
-0.202542   1.31504   5.40413 255 255 255
-0.85774 0.936564  5.53476 255 255 255
0.663143 0.853017  4.54779 255 255 255
-1.77753 0.484425  5.32263 255 255 255
 -1.68354 -0.102015   6.17844 255 255 255
0.338922  1.07823  5.38883 255 255 255
-0.441063   1.28204    5.4392 255 255 255
-0.0790459   0.661533    6.19323 255 255 255
0.151544 0.955538  5.43699 255 255 255
-0.585629   1.33563   5.72292 255 255 255
 -0.123974 -0.0564349    6.34515 255 255 255
  -1.61228 -0.0249055    6.13965 255 255 255
 1.87066 -1.20114  5.26914 255 255 255
 -1.51736 0.0671129   6.10942 255 255 255
 -1.63885 0.0878437   6.12253 255 255 255
-1.32672 0.217421  6.06091 255 255 255
-1.89937 0.300754  6.59524 255 255 255
 0.844718 -0.147683   6.11975 255 255 255
 -0.234553 -0.0896087    6.43756 255 255 255
 -0.121991 -0.0723122    6.34374 255 255 255
 -2.3106 0.407931  5.91301 255 255 255
 -1.8059 0.421377  5.29459 255 255 255
-1.90015 0.309144  6.59249 255 255 255
0.0544711  0.813445    6.0647 255 255 255
-2.11308 0.281489  5.99235 255 255 255
-1.7358 0.36357 6.21843 255 255 255
-1.68814 0.411513  5.26755 255 255 255
0.181769 0.950244   6.0182 255 255 255
 0.69733 0.779533  4.50813 255 255 255
 0.55401 0.792528  4.64598 255 255 255
0.697319 0.796833  4.50875 255 255 255
0.645452 0.900022  4.56748 255 255 255
0.563274 0.889367  4.64651 255 255 255
-0.646946    1.0034   5.58297 255 255 255
-0.403235   1.01479    5.4508 255 255 255
-0.586392   1.06522   5.49434 255 255 255
-0.623187   1.06804   5.50616 255 255 255
-0.384408   1.06321   5.40312 255 255 255
-0.639308   1.05572   5.51156 255 255 255
-0.591845   1.06096   5.49781 255 255 255
-0.580147    1.0795   5.49282 255 255 255
-0.33938  1.08811   5.3854 255 255 255
0.16804 1.12282  5.3575 255 255 255
0.346648  1.13122  5.28982 255 255 255
-0.933811   1.04655   5.51531 255 255 255
-0.380199   1.07733   5.40121 255 255 255
-0.641604   1.06886   5.51265 255 255 255
-0.598048   1.08431    5.4977 255 255 255
-0.602229   1.16345   5.50936 255 255 255
-0.419203   1.23187   5.43889 255 255 255
-0.409594   1.24619   5.43627 255 255 255
-0.353377    1.2797   5.41633 255 255 255
-0.50589  1.29385  5.49489 255 255 255
-0.885978   1.25772   5.52478 255 255 255
-0.595272   1.29412    5.5219 255 255 255
-0.664119   1.30797   5.54705 255 255 255
-0.905291   1.27816   5.53129 255 255 255
-0.319204   1.33002   5.41225 255 255 255
-0.562949    1.3323   5.51698 255 255 255
-0.407812    1.3299    5.4467 255 255 255
 1.66055 -1.37264  5.26351 255 255 255
 2.10593 -1.37181  5.20184 255 255 255
 2.12684 -1.27818  5.16511 255 255 255
0.205859 -1.35081  6.13026 255 255 255
-0.405844  -1.35203   6.26861 255 255 255
 1.92004 -1.20344   5.2642 255 255 255
 1.97729 -1.07324  5.14713 255 255 255
 2.10079 -1.18048  5.21131 255 255 255
 2.18187 -1.18365  5.21866 255 255 255
 1.49805 -1.04673  5.22457 255 255 255
-0.711844 -0.934096   6.37435 255 255 255
 0.306356 -0.442374   6.29984 255 255 255
 0.257674 -0.459139   6.30775 255 255 255
0.298449 -0.43108  6.30615 255 255 255
 0.217779 -0.437476    6.4169 255 255 255
 0.150881 -0.431662   6.33294 255 255 255
  -1.51654 -0.0221183    6.13418 255 255 255
  -1.344 0.215634  6.06052 255 255 255
-1.70617 0.488319  5.34794 255 255 255
0.0406762  0.935086   6.09773 255 255 255
0.0629017  0.935872    6.0831 255 255 255
-0.569541   1.01232   5.52326 255 255 255
0.309795  1.10144  5.30699 255 255 255
-0.29087  1.24997  5.38869 255 255 255
-0.578073   1.27846   5.51212 255 255 255
-0.878105   1.26167   5.52458 255 255 255
-0.622174   1.29703   5.53282 255 255 255
-0.536134   1.30281   5.50467 255 255 255
-0.822464   1.34592   5.52229 255 255 255
 1.65964 -1.37135  5.26828 255 255 255
 1.70609 -1.36651  5.25664 255 255 255
 2.07535 -1.27319  5.15691 255 255 255
-1.65993 0.522475   5.3251 255 255 255
-0.0172613   0.805072    6.10382 255 255 255
 0.141959 -0.571895   6.32351 255 255 255
  -1.5211 -0.019833   6.12254 255 255 255
 1.64739 0.435088  5.38841 255 255 255
 1.56677 0.517645   5.4005 255 255 255
0.640247  0.89733  4.57305 255 255 255
-1.74435 0.444072  5.29612 255 255 255
-0.554259  0.982261    5.6062 255 255 255
0.00448753   0.933757    6.12172 255 255 255
0.552736 0.805976  4.64891 255 255 255
0.302877  1.09779  5.30716 255 255 255
-0.583269  0.969834   5.88657 255 255 255
-0.601218   1.23505   5.51407 255 255 255
-0.391689   1.24698   5.42845 255 255 255
-0.655157    1.2611   5.53114 255 255 255
-0.379845   1.29795    5.4295 255 255 255
0.242593  1.12307  5.33393 255 255 255
0.246674  1.11155  5.28101 255 255 255
-0.617054   1.17982   5.51261 255 255 255
-0.545375   1.26687   5.50297 255 255 255
-2.44087  1.32425  6.01168 255 255 255
-0.556522    1.3273   5.51386 255 255 255
 1.87872 -1.20947  5.26651 255 255 255
 1.91491 -1.21175  5.26845 255 255 255
 1.3787 -1.0279 5.27428 255 255 255
 0.121444 -0.519527   6.32845 255 255 255
 0.229549 -0.504738   6.31156 255 255 255
 0.177576 -0.542697   6.31248 255 255 255
  -1.52312 -0.0192918    6.13422 255 255 255
   -1.4382 -0.0125954    6.12553 255 255 255
  0.18155 -0.465901   6.31892 255 255 255
 0.145914 -0.448693   6.33527 255 255 255
 -1.2037 0.352551  6.24869 255 255 255
-1.20404 0.352555  6.24579 255 255 255
 1.64273 0.516454  5.39344 255 255 255
-1.64298 0.431731  5.27399 255 255 255
 -1.62157 0.0807175   6.12076 255 255 255
-1.68042 0.483285  5.29837 255 255 255
-0.981132  0.908477   5.51381 255 255 255
0.241147  1.00931   5.3103 255 255 255
0.231463  1.09466  5.33235 255 255 255
-0.669636   1.26487   5.54614 255 255 255
-0.428671  -1.34128   6.25817 255 255 255
 0.186306 -0.504108   6.31842 255 255 255
 0.233526 -0.503978   6.30453 255 255 255
-1.16411 0.328396  6.36563 255 255 255
 1.58653 0.476174  5.40422 255 255 255
-1.72899 0.451204  5.29819 255 255 255
-0.628641   1.00664   5.56911 255 255 255
-0.570323   1.06973   5.48966 255 255 255
0.248517  1.01944  5.34382 255 255 255
0.322777    1.138  5.29845 255 255 255
-0.922591  0.987681   5.51111 255 255 255
-0.926803   1.04085    5.5139 255 255 255
-1.32506  1.32256  5.48084 255 255 255
-1.39487  1.32312  5.49118 255 255 255
2.04738 -1.3556 5.22567 255 255 255
 2.16243 -1.19863    5.186 255 255 255
-0.515872   1.28945   5.49637 255 255 255
 0.165842 -0.505317    6.3238 255 255 255
-1.56563 0.049752  6.12485 255 255 255
1.60894 0.44567 5.39593 255 255 255
0.611471 0.827907  4.60263 255 255 255
-0.590767    1.0313   5.49536 255 255 255
-0.391217   1.28176   5.43299 255 255 255
-1.25757  1.04558   5.8524 255 255 255
-0.269633   1.30906    5.3906 255 255 255
 -1.49021 0.0276264   6.12246 255 255 255
  -1.36692 -0.0849051    6.16555 255 255 255
-1.35302 0.117674  6.09931 255 255 255
-2.10139 0.284882  6.00675 255 255 255
 0.133784 -0.561003   6.32301 255 255 255
 0.162354 -0.550623   6.32192 255 255 255
-0.439229  -0.23589   6.38206 255 255 255
-0.0267038   0.719692    6.10705 255 255 255
-1.51807 0.221451  6.07794 255 255 255
-1.89173   0.3708  6.19292 255 255 255
0.00435372    0.76658    6.09236 255 255 255
0.697685 0.788319   4.5087 255 255 255
 -1.6979 0.485685  5.31322 255 255 255
0.520624 0.864375  5.25145 255 255 255
0.505237 0.863507  5.25716 255 255 255
-2.01196 0.888132  6.83478 255 255 255
-2.02733 0.764643  6.83807 255 255 255
-1.66333   1.0987  6.79635 255 255 255
-0.345077   1.09349   5.38675 255 255 255
-0.622914   1.06208    5.5063 255 255 255
-0.59548  1.29407  5.52157 255 255 255
-0.525816   1.31676   5.50136 255 255 255
-0.655752  -1.36213   6.32623 255 255 255
-0.295284   1.25852   5.38964 255 255 255
-0.311539    1.2657   5.39913 255 255 255
-0.311926   1.27212   5.39795 255 255 255
-0.549003   1.25521   5.50002 255 255 255
-0.25751  1.31621  5.38499 255 255 255
-0.408386   1.30986   5.44415 255 255 255
-0.526481   1.33284   5.50581 255 255 255
-0.905654   1.24915   5.52871 255 255 255
 2.14926 -1.21464  5.16051 255 255 255
-0.649906   1.33699   5.54532 255 255 255
 0.163301 -0.548846   6.31657 255 255 255
 -1.57251 0.0207567   6.12912 255 255 255
 -1.6279 0.072799  6.12728 255 255 255
-1.68107 0.423677  5.27277 255 255 255
0.051389 0.812577  6.06361 255 255 255
0.518635 0.879781  5.25569 255 255 255
-2.04621 0.813195  6.80743 255 255 255
0.185056  1.09547  5.35224 255 255 255
-2.02705 0.885764  6.83899 255 255 255
-0.350401   1.24915   5.41245 255 255 255
-0.246641    1.2919   5.37751 255 255 255
-0.878684    1.2801   5.52618 255 255 255
 -1.60706 0.0619421   6.12195 255 255 255
  1.9741 -1.25616  5.17361 255 255 255
 0.246405 -0.462117   6.30519 255 255 255
-1.80682 0.419606  5.29729 255 255 255
0.583537 0.898339  4.63469 255 255 255
0.0522714  0.725584   6.06309 255 255 255
-2.20684  0.40046  5.97416 255 255 255
-2.03927 0.856249  6.80972 255 255 255
0.570206 0.910739  4.64785 255 255 255
-2.01969 0.877547  6.83095 255 255 255
-2.07297 0.698763  6.82552 255 255 255
-2.08387 0.857585  6.80175 255 255 255
-0.427271    1.3151   5.45296 255 255 255
-0.343838   1.33022   5.42346 255 255 255
-0.349671    1.0783   5.38895 255 255 255
-0.420159   1.33477   5.45306 255 255 255
-0.699604 -0.903759    6.3897 255 255 255
-0.895306   1.24511   5.52673 255 255 255
-0.940373   1.32459   5.53788 255 255 255
   1.662 -1.41231   5.6914 255 255 255
 -1.44211 0.0735344   6.10788 255 255 255
  -1.62464 -0.0326526    6.14245 255 255 255
  -1.43966 -0.0163211    6.12405 255 255 255
-0.0067975   0.764933     6.0935 255 255 255
 0.64005 0.815635  4.58072 255 255 255
0.583308 0.814755   4.6297 255 255 255
 -1.6615 0.520103  5.31136 255 255 255
-1.63887 0.537882  5.32824 255 255 255
-0.979299  0.909859   5.51629 255 255 255
-0.978991  0.985851   5.51223 255 255 255
-0.398056   1.31945   5.44091 255 255 255
-0.683848   1.31327    5.5539 255 255 255
0.626589 0.854964  4.58471 255 255 255
0.0352272  0.768206   6.07597 255 255 255
 -2.0378 0.795073  6.83288 255 255 255
-0.22777  1.21142    5.373 255 255 255
-0.238227   1.23303   5.37137 255 255 255
-0.491682   1.22608   5.48348 255 255 255
-0.449988   1.22924   5.45523 255 255 255
 1.83442 0.566862  4.75236 255 255 255
0.0156496  0.736621   6.08657 255 255 255
0.611463 0.827822  4.60299 255 255 255
0.793386 -1.32617  6.01914 255 255 255
 2.19048 0.078415  5.21734 255 255 255
  1.79275 0.0768731   5.30988 255 255 255
0.333504  1.05842  5.30225 255 255 255
0.138961  0.51594   6.1691 255 255 255
-0.305374   1.27485   5.40393 255 255 255
 -1.49018 0.0266619   6.11495 255 255 255
-1.74025 0.375698  5.28579 255 255 255
-1.77602 0.484754  5.31751 255 255 255
  -1.68624 -0.0956343    6.15904 255 255 255
-1.43923 0.243094  6.14297 255 255 255
 2.16316 -1.37465  5.19994 255 255 255
-1.43586 0.254201  6.14765 255 255 255
0.544112 -1.36271  6.07132 255 255 255
-0.554762  -1.29178    6.3011 255 255 255
  1.6605 0.521291  5.39877 255 255 255
 1.96586 -1.23035  5.17855 255 255 255
  2.0767 -1.17935  5.21458 255 255 255
2.49924 -1.0725 5.03346 255 255 255
 2.57558 -1.06736  5.00475 255 255 255
 2.49553 -1.06724  5.03838 255 255 255
 2.49918 -1.06059  5.03146 255 255 255
-1.10794  0.31785  6.60077 255 255 255
-0.455257  -1.07404    6.4115 255 255 255
-0.456422  -1.04253   6.41302 255 255 255
-1.37005 0.322782  6.20129 255 255 255
-1.34151 0.329884  6.31806 255 255 255
-1.59493 0.305372  6.12736 255 255 255
-0.467904 -0.929657   6.34882 255 255 255
0.163705 0.614098  5.97886 255 255 255
-1.61747 0.426524  5.27925 255 255 255
-0.431201 -0.235464   6.39342 255 255 255
 -0.294683 -0.0675753    6.36312 255 255 255
 -0.230885 0.00508501    6.45521 255 255 255
  -1.61185 -0.0251484      6.143 255 255 255
  -1.59931 -0.0254511    6.17093 255 255 255
0.423339 0.704986  4.76663 255 255 255
-1.29672 0.223672  6.06366 255 255 255
0.415781 0.711012  4.77028 255 255 255
-1.51796 0.221499  6.07767 255 255 255
 -1.4326 0.242371  6.13818 255 255 255
-2.49199 0.447434  5.89378 255 255 255
-1.42313 0.243886  6.13947 255 255 255
-1.04314 0.300423  6.43217 255 255 255
-1.58349 0.257976  6.15021 255 255 255
-1.16126 0.327295  6.37713 255 255 255
0.519565 0.854457  5.25486 255 255 255
-1.21673 0.358821  6.25442 255 255 255
-1.66145 0.330485  6.33172 255 255 255
0.894286 0.868242  4.35087 255 255 255
-1.63077 0.377319  6.16575 255 255 255
-2.34312 0.332656  6.26249 255 255 255
-1.86782 0.711845  6.80209 255 255 255
0.639665  0.89894  4.56595 255 255 255
0.633286 0.897754  4.56083 255 255 255
-1.87105 0.726026  6.80103 255 255 255
-0.113028  0.926354   6.17945 255 255 255
-0.0492529   0.715502    6.07606 255 255 255
-1.77046 0.548736  5.35239 255 255 255
-0.816665  0.849189   5.49445 255 255 255
-0.912584  0.843676   5.56885 255 255 255
-2.04873 0.785948  6.84361 255 255 255
-2.08336 0.789513  6.83627 255 255 255
-0.995282  0.844831    5.5718 255 255 255
-1.86316 0.718113  6.80075 255 255 255
-1.02382 0.846439  5.53194 255 255 255
-1.87772 0.719095  6.79643 255 255 255
-0.300747  0.984524   5.74686 255 255 255
-1.07861 0.770365  5.70091 255 255 255
-2.20996 0.714102  6.88574 255 255 255
-1.89922 0.769648  5.88588 255 255 255
-0.172803    1.0023   5.51363 255 255 255
-0.299028  0.997186   5.59839 255 255 255
 2.3874 1.31408 5.44182 255 255 255
-1.00861 0.844945  5.58101 255 255 255
-0.948656  0.847382   5.51052 255 255 255
-2.02211 0.815078  6.83473 255 255 255
-0.294486   1.00634   5.53108 255 255 255
-2.19753 0.809288  6.88824 255 255 255
-0.324794  0.989075   5.69324 255 255 255
-2.03594 0.833803  6.76199 255 255 255
-0.206763   1.00638   5.51223 255 255 255
-1.38216 0.848735  5.52201 255 255 255
-0.523143   0.98564    5.7726 255 255 255
-0.408253   1.00202   5.53418 255 255 255
-0.295054   1.00399   5.54803 255 255 255
 -1.9141 0.803246  5.87758 255 255 255
-0.252046   1.00835   5.51804 255 255 255
-0.520901  0.995359   5.61988 255 255 255
-0.374196   1.00447   5.56889 255 255 255
-0.523345  0.997752    5.6451 255 255 255
-0.209905   1.02404   5.38158 255 255 255
-2.08335 0.867733  6.80575 255 255 255
-2.02495 0.886083  6.82302 255 255 255
0.253958  1.12012  5.32729 255 255 255
-2.08163 0.895999  6.79858 255 255 255
-2.06843 0.897423  6.79724 255 255 255
-0.510638   1.01035   5.49957 255 255 255
-0.645499    1.0041   5.56248 255 255 255
-0.562772   1.01489   5.53084 255 255 255
-0.345092   1.06082   5.38517 255 255 255
-0.384184   1.06332   5.40329 255 255 255
-1.98731 0.834401   5.6348 255 255 255
-1.95158 0.833517  5.60523 255 255 255
-0.38576  1.07595  5.40557 255 255 255
-0.646271   1.06033   5.51532 255 255 255
-0.591453   1.06041   5.49666 255 255 255
-0.466512   1.11606    5.4709 255 255 255
-0.365528   1.08998   5.39263 255 255 255
-2.24742 0.979311  6.74507 255 255 255
  -1.386 0.992181  5.50587 255 255 255
-2.03875 0.941158  6.44774 255 255 255
-0.280227   1.24941   5.38202 255 255 255
-0.644514   1.08028    5.5148 255 255 255
0.489536   1.2655  5.21647 255 255 255
-0.257792   1.28146   5.37738 255 255 255
0.917007  1.28739  4.38985 255 255 255
-0.62407  1.23543  5.52216 255 255 255
-0.327121    1.2972   5.40978 255 255 255
-0.283813   1.30477   5.39198 255 255 255
-0.460082   1.21856   5.45719 255 255 255
-0.257651   1.25724    5.3734 255 255 255
0.931291  1.35301  4.39764 255 255 255
-0.675131   1.23041    5.5429 255 255 255
-0.397424   1.31027   5.43798 255 255 255
-0.665907   1.24403   5.53829 255 255 255
-0.625491   1.25407   5.52465 255 255 255
-0.58152  1.29493  5.51738 255 255 255
-0.375508   1.28718   5.42533 255 255 255
-0.792233   1.22532   5.51359 255 255 255
-0.252434   1.32451   5.38423 255 255 255
-0.341267   1.31778   5.41612 255 255 255
-0.575121   1.29751    5.5289 255 255 255
-0.273826   1.33581   5.39369 255 255 255
-0.845629    1.2539   5.51175 255 255 255
-0.51019  1.33381  5.50549 255 255 255
-0.988851   1.32865   5.72661 255 255 255
-0.813165   1.34092   5.52084 255 255 255
-1.05521  1.32289  5.69854 255 255 255
 1.62548 -1.38843  5.32915 255 255 255
 1.67275 -1.37873  5.25518 255 255 255
 2.11049 -1.37407  5.20319 255 255 255
 1.66736 -1.40898  5.72941 255 255 255
 1.61403 -1.39035  5.39674 255 255 255
0.817012 -1.35236  6.00017 255 255 255
 2.09482 -1.29186   5.1847 255 255 255
 2.11915 -1.29885   5.2021 255 255 255
-0.536859  -1.29215   6.30369 255 255 255
  1.7834 -1.24873  5.19437 255 255 255
  1.8075 -1.24181  5.19853 255 255 255
 2.07712 -1.22975  5.16903 255 255 255
 1.71248 -1.17636  5.27059 255 255 255
 1.64547 -1.39819  5.55401 255 255 255
 2.52295 -1.05513   5.0536 255 255 255
 2.13825 -1.27361  5.15939 255 255 255
 2.46301 -1.02406  5.01708 255 255 255
 2.00114 -1.26183  5.17402 255 255 255
-0.457699 -0.941196   6.39998 255 255 255
 1.96885 -1.21436   5.1727 255 255 255
1.98864 -1.2115  5.1696 255 255 255
0.261077 -0.54979  6.30583 255 255 255
 0.257346 -0.549463   6.30155 255 255 255
 1.44702 -1.06412  5.25691 255 255 255
-0.462708  -1.05242   6.38411 255 255 255
  2.50732 -0.984992    5.0158 255 255 255
   2.1881 0.0336757   5.20642 255 255 255
  1.6018 0.384841  4.21225 255 255 255
 -0.299226 -0.0540572    6.39957 255 255 255
 1.57386 0.518249  5.40969 255 255 255
-0.951428  0.351746    6.1815 255 255 255
-1.68787  0.37476  6.20625 255 255 255
-1.70589  0.37543  6.19611 255 255 255
0.948644  0.70349  4.46649 255 255 255
0.573609 0.685872  4.78468 255 255 255
0.420916 0.722794  4.76374 255 255 255
0.871855 0.834322  4.34467 255 255 255
0.589191 0.902788  4.64482 255 255 255
0.578596 0.899421  4.63539 255 255 255
0.567739 0.910207  4.64635 255 255 255
-2.08197 0.708119   6.8247 255 255 255
-2.09258 0.715188  6.83208 255 255 255
-0.835603  0.849888   5.48829 255 255 255
1.81414 1.18722  4.8824 255 255 255
-0.967616  0.847912   5.52834 255 255 255
2.38575  1.3366 5.43963 255 255 255
-0.364139  0.984146   5.80653 255 255 255
-0.857344  0.882434   5.47675 255 255 255
-2.03409  0.83501  6.79286 255 255 255
-0.301002  0.999225   5.62458 255 255 255
-0.923102   0.94651   6.04479 255 255 255
-0.582762   0.98997   5.70539 255 255 255
0.298669  1.09822  5.29683 255 255 255
-2.19317 0.910085  6.91525 255 255 255
-2.25665 0.908312   6.7415 255 255 255
0.895257  1.19602  4.37937 255 255 255
-0.355979   1.19694   5.41165 255 255 255
-0.4682   1.182 5.45445 255 255 255
-0.256447   1.23681   5.37535 255 255 255
-0.510668   1.23223   5.48823 255 255 255
-0.294325   1.26895   5.38881 255 255 255
-0.311798   1.26962    5.3988 255 255 255
-0.566758   1.26629   5.50459 255 255 255
0.920321  1.41503  4.44125 255 255 255
-1.0786 1.31553 5.70775 255 255 255
 1.60517 -1.38576  5.35076 255 255 255
0.0429656   0.72841   6.06693 255 255 255
 1.85239 -1.43935  5.60841 255 255 255
-0.00311908    -1.34516     6.15698 255 255 255
 1.69278 -1.27268  5.22576 255 255 255
 1.77348 -1.27463  5.21045 255 255 255
-2.48276  0.45297    5.894 255 255 255
 1.98632 -1.21765  5.18693 255 255 255
 1.83781 -1.20795  5.26005 255 255 255
0.0267239  0.766887   6.07217 255 255 255
 1.38216 -1.12006  5.26851 255 255 255
0.0496046  0.809102   6.08313 255 255 255
-0.713473  -1.13335   6.35454 255 255 255
-0.710729 -0.935493   6.37489 255 255 255
 0.281988 -0.572885   6.29615 255 255 255
 0.301711 -0.556335   6.28682 255 255 255
 0.246963 -0.545643   6.30265 255 255 255
0.643057 0.897472  4.57825 255 255 255
0.675879 0.903187  4.51855 255 255 255
 0.164781 -0.461759    6.3126 255 255 255
0.695725 0.906992  4.53368 255 255 255
 0.279096 -0.427846   6.31622 255 255 255
0.543943  1.03924  5.21444 255 255 255
 1.57204 0.435778  5.39601 255 255 255
-1.62151 0.300627  6.63654 255 255 255
-1.90949 0.787967  5.86332 255 255 255
-1.68083 0.348523  6.34431 255 255 255
-1.74903 0.372923  6.19284 255 255 255
-2.08002 0.873818  6.78974 255 255 255
-2.28835 0.342134  6.24392 255 255 255
-1.81776 0.388527  6.11959 255 255 255
-0.565665   1.00145   5.60096 255 255 255
-0.705187   1.02833   5.57203 255 255 255
1.91205 1.35707 4.56008 255 255 255
-0.984804  0.989038   5.51673 255 255 255
0.638687 0.812831  4.57186 255 255 255
-0.238356   1.23026   5.37776 255 255 255
-0.141419  0.908648    6.2002 255 255 255
0.570162 0.910636  4.64777 255 255 255
0.901403  1.36921    4.397 255 255 255
-0.380302   1.26469   5.42178 255 255 255
-0.914798  0.907667   6.05137 255 255 255
-0.439478  0.973645   5.68237 255 255 255
-0.919818  0.935595   6.02446 255 255 255
-0.374395  0.995539   5.70802 255 255 255
-0.328174   1.34037   5.41391 255 255 255
-0.404103   1.00264    5.5488 255 255 255
0.287698   1.0945  5.29053 255 255 255
-0.599724   1.32696   5.52927 255 255 255
0.35765 1.11379 5.29197 255 255 255
0.185994 -1.34642  6.15105 255 255 255
 2.00854 -1.30856  5.24735 255 255 255
 2.10453 -1.22334  5.16324 255 255 255
-0.457562   1.18402   5.46608 255 255 255
 2.44518 -1.03671  5.05458 255 255 255
-0.602994   1.23493   5.51442 255 255 255
 2.45716 -1.00524  5.05915 255 255 255
-0.627351   1.29909   5.54536 255 255 255
-0.863221    1.2792   5.52661 255 255 255
 1.64326 -1.36344  5.25724 255 255 255
-0.395489  -1.34634   6.25745 255 255 255
 2.08077 -1.30816  5.20915 255 255 255
  1.6524 -1.34707  5.73473 255 255 255
 2.10733 -1.26971  5.16193 255 255 255
-0.713252  -1.15548    6.3516 255 255 255
 1.40312 -1.00507  5.24053 255 255 255
  1.38566 -0.997416   5.24809 255 255 255
 1.78205 0.135287  5.31528 255 255 255
 0.249663 -0.425394   6.32494 255 255 255
 1.62923 0.476844  5.38825 255 255 255
-0.971533  0.356352   6.19099 255 255 255
 -1.6036 0.318508  6.63369 255 255 255
 -1.1964 0.332576  6.26246 255 255 255
-2.10525 0.313465  5.99471 255 255 255
-1.73265 0.379498  6.16302 255 255 255
 -1.0523 0.464424  5.60723 255 255 255
-1.62046 0.418956  5.27726 255 255 255
-0.0545264   0.564499    6.32239 255 255 255
 -1.6401 0.432999  5.28304 255 255 255
-2.33076 0.394749  5.93821 255 255 255
-2.32953 0.374597  5.94001 255 255 255
0.991713 0.708595  4.52984 255 255 255
-1.72007 0.450282    5.336 255 255 255
0.874087 0.718412  4.45567 255 255 255
0.0302886  0.767413   6.07068 255 255 255
0.562615 0.795041  4.63484 255 255 255
-2.06095 0.777964  6.83873 255 255 255
0.298463  1.01749  5.31612 255 255 255
-0.967823  0.947275   5.51121 255 255 255
-0.230336   1.21061   5.37037 255 255 255
-0.808833   1.13202   5.50469 255 255 255
-0.46963  1.25367  5.47297 255 255 255
-0.684713    1.2411   5.54263 255 255 255
-1.56609  1.20252  6.47885 255 255 255
 1.95463 -1.23925  5.19248 255 255 255
 2.53391 -1.00132  5.00391 255 255 255
-0.467729  -1.00844   6.38782 255 255 255
 -1.57943 0.0586525   6.15431 255 255 255
 -1.59177 0.0569733   6.12568 255 255 255
 1.58556 0.475992  5.40798 255 255 255
-1.70915 0.403459  5.26678 255 255 255
-1.69863 0.460862  5.30468 255 255 255
-1.70024   0.4601  5.30081 255 255 255
-1.59109 0.280807  6.11683 255 255 255
-1.58801 0.326541  6.44919 255 255 255
-1.69658 0.509569  5.30946 255 255 255
 -1.5701 0.343078  6.30663 255 255 255
-1.70046 0.509045  5.30278 255 255 255
-2.45703 0.469682   5.8862 255 255 255
0.0118177  0.796789   6.08506 255 255 255
-2.26149 0.332565   6.2863 255 255 255
-1.07385 0.434782  5.56038 255 255 255
-1.64577 0.408101  5.29877 255 255 255
0.077622 0.860126  5.42612 255 255 255
 -1.7205 0.454415  5.29751 255 255 255
-2.33547 0.412006  5.89905 255 255 255
0.663834 0.936434  4.55384 255 255 255
0.0329411  0.767229   6.06966 255 255 255
0.271759  1.02734  5.32988 255 255 255
-1.94675 0.754203  5.58017 255 255 255
-1.03971 0.784717  5.63264 255 255 255
-1.00658 0.839666  5.64292 255 255 255
-0.918144  0.850015   5.56912 255 255 255
-0.982848  0.845461   5.54935 255 255 255
-0.313025   1.01486    5.5128 255 255 255
1.83613 1.40135 4.59858 255 255 255
-2.15414 0.949749  6.50298 255 255 255
-0.470754   1.20474   5.47278 255 255 255
0.157599  1.31095  5.42689 255 255 255
1.84167 1.35537 4.88235 255 255 255
-1.01645   1.1379  5.54153 255 255 255
-0.755415   1.19144    5.5375 255 255 255
-2.05307  0.92324  6.44616 255 255 255
-1.68304  1.18146  6.65279 255 255 255
-0.848309   1.21021   5.50663 255 255 255
0.0803424   1.21987   5.35199 255 255 255
-0.825632   1.18293   5.49174 255 255 255
-0.711112    1.2258   5.55332 255 255 255
-0.846695   1.32943   5.51662 255 255 255
-0.763091   1.23473    5.5319 255 255 255
-1.00786  1.31377  5.56035 255 255 255
-0.567423   1.28835    5.5128 255 255 255
-0.716976   1.31717   5.55665 255 255 255
 2.56882 -1.04879  5.03818 255 255 255
  2.0195 -1.24568  5.17574 255 255 255
-0.464054 -0.700998   6.40127 255 255 255
 2.08087 -1.19405  5.18839 255 255 255
2.49679 -1.0033 5.03993 255 255 255
  1.38505 -0.955804   5.27433 255 255 255
  2.5575 -0.95763  5.03517 255 255 255
0.196476   -0.532  6.29194 255 255 255
 0.209687 -0.474333   6.31233 255 255 255
 2.27782 0.116827  5.21972 255 255 255
-1.50704  -0.0527  6.07105 255 255 255
-0.961355  0.324634   6.31137 255 255 255
-1.70357 0.370226  6.24641 255 255 255
-1.65631 0.487769  5.30341 255 255 255
0.578144 0.857287  4.63219 255 255 255
-1.95046 0.807325  5.75746 255 255 255
0.447292  1.35539  4.81837 255 255 255
-0.646296   1.27933   5.53632 255 255 255
-1.47408 0.335062  6.28941 255 255 255
  -2.179 0.390836  5.95827 255 255 255
-0.99948 0.945032  5.51765 255 255 255
-0.526326   1.03631    5.4666 255 255 255
-0.413043   1.28177   5.45281 255 255 255
 2.05901 -1.33089  5.23289 255 255 255
 1.40625 -1.11697  5.25347 255 255 255
 2.53056 -1.11143  5.02839 255 255 255
-0.681624   1.27854   5.54641 255 255 255
-0.693729  -1.29921   6.28831 255 255 255
-0.289916  -1.31604   6.25581 255 255 255
-1.73253 0.198411  6.16405 255 255 255
 2.54529 -1.24451  5.18863 255 255 255
 1.82831 0.509227   4.7615 255 255 255
-2.25266 0.415105  5.95107 255 255 255
0.463131 0.951471  5.30749 255 255 255
 0.1557 1.17138 5.35987 255 255 255
-1.77612 0.484824  5.31685 255 255 255
-0.552397   1.27454   5.51868 255 255 255
 1.99751 -1.26974  5.22175 255 255 255
  -1.30456 -0.0905089    6.24267 255 255 255
0.135811 0.659113  6.06525 255 255 255
-0.0714796   0.660569    6.15432 255 255 255
-1.33827 0.126979  6.13834 255 255 255
-0.943509   1.11288    5.5343 255 255 255
